<mxfile host="app.diagrams.net" agent="Mozilla/5.0 (Windows NT 10.0; Win64; x64) AppleWebKit/537.36 (KHTML, like Gecko) Chrome/134.0.0.0 Safari/537.36" version="26.1.0">
  <diagram name="Page-1" id="GcLynW6Bm_qK1KajZ2lx">
    <mxGraphModel dx="1434" dy="746" grid="1" gridSize="10" guides="1" tooltips="1" connect="1" arrows="1" fold="1" page="1" pageScale="1" pageWidth="1169" pageHeight="827" math="0" shadow="0">
      <root>
        <mxCell id="0" />
        <mxCell id="1" parent="0" />
        <mxCell id="DFPLayo4z6RkdoQgYkVW-1" value="&lt;b&gt;&lt;i&gt;Research aim:&lt;/i&gt;&lt;/b&gt;&lt;div&gt;&lt;br&gt;&lt;div style=&quot;font-size: 16px;&quot;&gt;&lt;i&gt;To develop a new approach to Population Synthesis and study the impact on activity generation&lt;/i&gt;&lt;/div&gt;&lt;/div&gt;" style="rounded=0;whiteSpace=wrap;html=1;align=left;fontSize=16;fillColor=#b1ddf0;strokeColor=#10739e;" parent="1" vertex="1">
          <mxGeometry x="10" y="300" width="130" height="370" as="geometry" />
        </mxCell>
        <mxCell id="DFPLayo4z6RkdoQgYkVW-2" value="Task 1: Generating the synthetic population for 1 level" style="swimlane;fontStyle=3;childLayout=stackLayout;horizontal=1;startSize=26;horizontalStack=0;resizeParent=1;resizeParentMax=0;resizeLast=0;collapsible=1;marginBottom=0;align=center;fontSize=16;" parent="1" vertex="1">
          <mxGeometry x="160" y="298" width="620" height="112" as="geometry" />
        </mxCell>
        <mxCell id="DFPLayo4z6RkdoQgYkVW-66" value="" style="shape=table;startSize=0;container=1;collapsible=0;childLayout=tableLayout;fontSize=16;" parent="DFPLayo4z6RkdoQgYkVW-2" vertex="1">
          <mxGeometry y="26" width="620" height="26" as="geometry" />
        </mxCell>
        <mxCell id="DFPLayo4z6RkdoQgYkVW-67" value="" style="shape=tableRow;horizontal=0;startSize=0;swimlaneHead=0;swimlaneBody=0;strokeColor=inherit;top=0;left=0;bottom=0;right=0;collapsible=0;dropTarget=0;fillColor=none;points=[[0,0.5],[1,0.5]];portConstraint=eastwest;fontSize=16;" parent="DFPLayo4z6RkdoQgYkVW-66" vertex="1">
          <mxGeometry width="620" height="26" as="geometry" />
        </mxCell>
        <mxCell id="DFPLayo4z6RkdoQgYkVW-68" value="95%" style="shape=partialRectangle;html=1;whiteSpace=wrap;connectable=0;strokeColor=#10739e;overflow=hidden;fillColor=#b1ddf0;top=0;left=0;bottom=0;right=0;pointerEvents=1;fontSize=16;" parent="DFPLayo4z6RkdoQgYkVW-67" vertex="1">
          <mxGeometry width="600" height="26" as="geometry">
            <mxRectangle width="600" height="26" as="alternateBounds" />
          </mxGeometry>
        </mxCell>
        <mxCell id="DFPLayo4z6RkdoQgYkVW-69" value="" style="shape=partialRectangle;html=1;whiteSpace=wrap;connectable=0;overflow=hidden;fillColor=#eeeeee;top=0;left=0;bottom=0;right=0;pointerEvents=1;fontSize=16;strokeColor=#36393d;" parent="DFPLayo4z6RkdoQgYkVW-67" vertex="1">
          <mxGeometry x="600" width="20" height="26" as="geometry">
            <mxRectangle width="20" height="26" as="alternateBounds" />
          </mxGeometry>
        </mxCell>
        <mxCell id="DFPLayo4z6RkdoQgYkVW-3" value="Reviewing Population Synthesis from a new perspective: issue-based" style="text;strokeColor=none;fillColor=none;spacingLeft=4;spacingRight=4;overflow=hidden;rotatable=0;points=[[0,0.5],[1,0.5]];portConstraint=eastwest;fontSize=16;whiteSpace=wrap;html=1;labelBackgroundColor=#B9E0A5;textShadow=0;labelBorderColor=none;" parent="DFPLayo4z6RkdoQgYkVW-2" vertex="1">
          <mxGeometry y="52" width="620" height="30" as="geometry" />
        </mxCell>
        <mxCell id="DFPLayo4z6RkdoQgYkVW-4" value="Introducing new methodologies to tackle existing issues as well as explainability" style="text;strokeColor=none;fillColor=none;spacingLeft=4;spacingRight=4;overflow=hidden;rotatable=0;points=[[0,0.5],[1,0.5]];portConstraint=eastwest;fontSize=16;whiteSpace=wrap;html=1;labelBackgroundColor=#B9E0A5;textShadow=0;labelBorderColor=none;" parent="DFPLayo4z6RkdoQgYkVW-2" vertex="1">
          <mxGeometry y="82" width="620" height="30" as="geometry" />
        </mxCell>
        <mxCell id="DFPLayo4z6RkdoQgYkVW-6" value="Task 2: Connect the synthetic households and personsÂ " style="swimlane;fontStyle=3;childLayout=stackLayout;horizontal=1;startSize=26;horizontalStack=0;resizeParent=1;resizeParentMax=0;resizeLast=0;collapsible=1;marginBottom=0;align=center;fontSize=16;" parent="1" vertex="1">
          <mxGeometry x="160" y="430" width="620" height="113" as="geometry" />
        </mxCell>
        <mxCell id="DFPLayo4z6RkdoQgYkVW-62" value="" style="shape=table;startSize=0;container=1;collapsible=0;childLayout=tableLayout;fontSize=16;" parent="DFPLayo4z6RkdoQgYkVW-6" vertex="1">
          <mxGeometry y="26" width="620" height="27" as="geometry" />
        </mxCell>
        <mxCell id="DFPLayo4z6RkdoQgYkVW-63" value="" style="shape=tableRow;horizontal=0;startSize=0;swimlaneHead=0;swimlaneBody=0;strokeColor=inherit;top=0;left=0;bottom=0;right=0;collapsible=0;dropTarget=0;fillColor=none;points=[[0,0.5],[1,0.5]];portConstraint=eastwest;fontSize=16;" parent="DFPLayo4z6RkdoQgYkVW-62" vertex="1">
          <mxGeometry width="620" height="27" as="geometry" />
        </mxCell>
        <mxCell id="DFPLayo4z6RkdoQgYkVW-64" value="90%" style="shape=partialRectangle;html=1;whiteSpace=wrap;connectable=0;strokeColor=#10739e;overflow=hidden;fillColor=#b1ddf0;top=0;left=0;bottom=0;right=0;pointerEvents=1;fontSize=16;" parent="DFPLayo4z6RkdoQgYkVW-63" vertex="1">
          <mxGeometry width="580" height="27" as="geometry">
            <mxRectangle width="580" height="27" as="alternateBounds" />
          </mxGeometry>
        </mxCell>
        <mxCell id="DFPLayo4z6RkdoQgYkVW-65" value="" style="shape=partialRectangle;html=1;whiteSpace=wrap;connectable=0;strokeColor=#36393d;overflow=hidden;fillColor=#eeeeee;top=0;left=0;bottom=0;right=0;pointerEvents=1;fontSize=16;" parent="DFPLayo4z6RkdoQgYkVW-63" vertex="1">
          <mxGeometry x="580" width="40" height="27" as="geometry">
            <mxRectangle width="40" height="27" as="alternateBounds" />
          </mxGeometry>
        </mxCell>
        <mxCell id="DFPLayo4z6RkdoQgYkVW-7" value="&lt;span style=&quot;background-color: rgb(185, 224, 165);&quot;&gt;Generated a connected population&lt;/span&gt;" style="text;strokeColor=none;fillColor=none;spacingLeft=4;spacingRight=4;overflow=hidden;rotatable=0;points=[[0,0.5],[1,0.5]];portConstraint=eastwest;fontSize=16;whiteSpace=wrap;html=1;labelBackgroundColor=#FFE599;" parent="DFPLayo4z6RkdoQgYkVW-6" vertex="1">
          <mxGeometry y="53" width="620" height="30" as="geometry" />
        </mxCell>
        <mxCell id="DFPLayo4z6RkdoQgYkVW-8" value="&lt;span style=&quot;background-color: rgb(185, 224, 165);&quot;&gt;Introducing a new methodology to incorporate the household relationships&lt;/span&gt;" style="text;strokeColor=none;fillColor=none;spacingLeft=4;spacingRight=4;overflow=hidden;rotatable=0;points=[[0,0.5],[1,0.5]];portConstraint=eastwest;fontSize=16;whiteSpace=wrap;html=1;labelBackgroundColor=#FF6666;" parent="DFPLayo4z6RkdoQgYkVW-6" vertex="1">
          <mxGeometry y="83" width="620" height="30" as="geometry" />
        </mxCell>
        <mxCell id="DFPLayo4z6RkdoQgYkVW-10" value="Task 3: Generating the household activities" style="swimlane;fontStyle=3;childLayout=stackLayout;horizontal=1;startSize=26;horizontalStack=0;resizeParent=1;resizeParentMax=0;resizeLast=0;collapsible=1;marginBottom=0;align=center;fontSize=16;" parent="1" vertex="1">
          <mxGeometry x="160" y="560" width="620" height="110" as="geometry" />
        </mxCell>
        <mxCell id="DFPLayo4z6RkdoQgYkVW-44" value="" style="shape=table;startSize=0;container=1;collapsible=0;childLayout=tableLayout;fontSize=16;" parent="DFPLayo4z6RkdoQgYkVW-10" vertex="1">
          <mxGeometry y="26" width="620" height="24" as="geometry" />
        </mxCell>
        <mxCell id="DFPLayo4z6RkdoQgYkVW-45" value="" style="shape=tableRow;horizontal=0;startSize=0;swimlaneHead=0;swimlaneBody=0;strokeColor=inherit;top=0;left=0;bottom=0;right=0;collapsible=0;dropTarget=0;fillColor=none;points=[[0,0.5],[1,0.5]];portConstraint=eastwest;fontSize=16;" parent="DFPLayo4z6RkdoQgYkVW-44" vertex="1">
          <mxGeometry width="620" height="24" as="geometry" />
        </mxCell>
        <mxCell id="DFPLayo4z6RkdoQgYkVW-46" value="&lt;font style=&quot;font-size: 16px;&quot; face=&quot;Helvetica&quot;&gt;50%&lt;/font&gt;" style="shape=partialRectangle;html=1;whiteSpace=wrap;connectable=0;strokeColor=#10739e;overflow=hidden;fillColor=#b1ddf0;top=0;left=0;bottom=0;right=0;pointerEvents=1;fontSize=16;" parent="DFPLayo4z6RkdoQgYkVW-45" vertex="1">
          <mxGeometry width="310" height="24" as="geometry">
            <mxRectangle width="310" height="24" as="alternateBounds" />
          </mxGeometry>
        </mxCell>
        <mxCell id="DFPLayo4z6RkdoQgYkVW-47" value="" style="shape=partialRectangle;html=1;whiteSpace=wrap;connectable=0;strokeColor=#36393d;overflow=hidden;fillColor=#eeeeee;top=0;left=0;bottom=0;right=0;pointerEvents=1;fontSize=16;" parent="DFPLayo4z6RkdoQgYkVW-45" vertex="1">
          <mxGeometry x="310" width="310" height="24" as="geometry">
            <mxRectangle width="310" height="24" as="alternateBounds" />
          </mxGeometry>
        </mxCell>
        <mxCell id="DFPLayo4z6RkdoQgYkVW-11" value="&lt;span style=&quot;background-color: rgb(185, 224, 165);&quot;&gt;Introducing a new methodology considering household activities - proof of concepts&lt;/span&gt;" style="text;strokeColor=none;fillColor=none;spacingLeft=4;spacingRight=4;overflow=hidden;rotatable=0;points=[[0,0.5],[1,0.5]];portConstraint=eastwest;fontSize=16;whiteSpace=wrap;html=1;labelBackgroundColor=#FFE599;" parent="DFPLayo4z6RkdoQgYkVW-10" vertex="1">
          <mxGeometry y="50" width="620" height="30" as="geometry" />
        </mxCell>
        <mxCell id="DFPLayo4z6RkdoQgYkVW-12" value="&lt;span style=&quot;background-color: rgb(255, 229, 153);&quot;&gt;Applying the method to real-life case study&lt;/span&gt;" style="text;strokeColor=none;fillColor=none;spacingLeft=4;spacingRight=4;overflow=hidden;rotatable=0;points=[[0,0.5],[1,0.5]];portConstraint=eastwest;fontSize=16;whiteSpace=wrap;html=1;labelBackgroundColor=#FF6666;" parent="DFPLayo4z6RkdoQgYkVW-10" vertex="1">
          <mxGeometry y="80" width="620" height="30" as="geometry" />
        </mxCell>
      </root>
    </mxGraphModel>
  </diagram>
</mxfile>
